<svg width="40" height="40" viewBox="0 0 40 40" fill="none" xmlns="http://www.w3.org/2000/svg">
<path d="M28.8887 33.3333C28.8887 33.3333 28.8887 33.0489 28.8887 32.6984V31.746C28.8887 31.3955 28.8887 31.1111 28.8887 31.1111C28.8887 31.1111 28.8887 31.3955 28.8887 31.746V32.6984C28.8887 33.0489 28.8887 33.3333 28.8887 33.3333Z" fill="#163668" stroke="#163668"/>
<path d="M29.166 31.111H27.2216C26.9149 31.111 26.666 30.8621 26.666 30.5554C26.666 30.2488 26.9149 29.9999 27.2216 29.9999H29.166C29.626 29.9999 29.9993 29.6254 29.9993 29.1666C29.9993 28.7077 29.626 28.3332 29.166 28.3332H28.6105C27.5382 28.3332 26.666 27.461 26.666 26.3888C26.666 25.3166 27.5382 24.4443 28.6105 24.4443H30.5549C30.8616 24.4443 31.1105 24.6932 31.1105 24.9999C31.1105 25.3066 30.8616 25.5554 30.5549 25.5554H28.6105C28.1505 25.5554 27.7771 25.9299 27.7771 26.3888C27.7771 26.8477 28.1505 27.2221 28.6105 27.2221H29.166C30.2382 27.2221 31.1105 28.0943 31.1105 29.1666C31.1105 30.2388 30.2382 31.111 29.166 31.111Z" fill="#163668" stroke="#163668" stroke-width="0.3"/>
<path d="M28.8887 24.4444C28.8887 24.4444 28.8887 24.1599 28.8887 23.8095V22.8571C28.8887 22.5066 28.8887 22.2222 28.8887 22.2222C28.8887 22.2222 28.8887 22.5066 28.8887 22.8571V23.8095C28.8887 24.1599 28.8887 24.4444 28.8887 24.4444Z" fill="#163668" stroke="#163668" stroke-width="0.8"/>
<path d="M27.7773 37.7778C22.2635 37.7778 17.7773 33.2917 17.7773 27.7778C17.7773 22.264 22.2635 17.7778 27.7773 17.7778C33.2912 17.7778 37.7773 22.264 37.7773 27.7778C37.7773 33.2917 33.2912 37.7778 27.7773 37.7778ZM27.7773 19.3163C23.1112 19.3163 19.3158 23.1132 19.3158 27.7778C19.3158 32.4424 23.1112 36.2394 27.7773 36.2394C32.4435 36.2394 36.2389 32.4424 36.2389 27.7778C36.2389 23.1132 32.4435 19.3163 27.7773 19.3163Z" fill="#163668" stroke="#163668" stroke-width="0.8"/>
<path d="M14.6185 31.1111H9.51432C7.90578 31.1111 6.59766 29.8154 6.59766 28.2221V18.1107H3.68099C2.86286 18.1107 2.22266 17.4766 2.22266 16.6663C2.22266 16.2604 2.40057 15.8588 2.69807 15.5944L17.0393 2.41501C17.3179 2.15789 17.751 2.15789 18.031 2.41501L22.6393 6.64733V4.38817C22.6393 3.98949 22.966 3.66593 23.3685 3.66593H27.7435C28.146 3.66593 28.4727 3.98949 28.4727 4.38817V12.0049L30.8804 14.2309C31.1749 14.5024 31.1895 14.9603 30.9154 15.2507C30.6397 15.5424 30.1789 15.5583 29.8843 15.2853L27.2447 12.8456C27.0989 12.7098 27.0143 12.5191 27.0143 12.3184V5.11041H24.0977V8.30271C24.0977 8.59016 23.9256 8.85017 23.6602 8.96428C23.3933 9.07839 23.0841 9.02784 22.8727 8.83139L17.5352 3.92882L3.68099 16.6605L7.32682 16.6663C7.72932 16.6663 8.05599 16.9898 8.05599 17.3885V28.2221C8.05599 29.0194 8.71078 29.6666 9.51432 29.6666H14.6185C15.021 29.6666 15.3477 29.9901 15.3477 30.3888C15.3477 30.7875 15.021 31.1111 14.6185 31.1111Z" fill="#163668" stroke="#163668" stroke-width="0.8"/>
</svg>