<svg width="40" height="32" viewBox="0 0 40 32" fill="none" xmlns="http://www.w3.org/2000/svg">
<path d="M28.3327 31V2.66667C28.3327 2.22464 28.1571 1.80072 27.8445 1.48816C27.532 1.17559 27.108 1 26.666 1H13.3327C12.8907 1 12.4667 1.17559 12.1542 1.48816C11.8416 1.80072 11.666 2.22464 11.666 2.66667V31" stroke="#163668" stroke-width="2" stroke-linecap="round" stroke-linejoin="round"/>
<path d="M11.6654 11H4.9987C4.55667 11 4.13275 11.1756 3.82019 11.4882C3.50763 11.8007 3.33203 12.2246 3.33203 12.6667V31" stroke="#163668" stroke-width="2" stroke-linecap="round" stroke-linejoin="round"/>
<path d="M36.6654 31V12.6667C36.6654 12.2246 36.4898 11.8007 36.1772 11.4882C35.8647 11.1756 35.4407 11 34.9987 11H28.332" stroke="#163668" stroke-width="2" stroke-linecap="round" stroke-linejoin="round"/>
<path d="M15.832 24.3333H24.1654" stroke="#163668" stroke-width="2" stroke-linecap="round" stroke-linejoin="round"/>
<path d="M22.5 24.3333V30.9999" stroke="#163668" stroke-width="2" stroke-linecap="round" stroke-linejoin="round"/>
<path d="M17.5 30.9999V24.3333" stroke="#163668" stroke-width="2" stroke-linecap="round" stroke-linejoin="round"/>
<path d="M16.666 13.5H23.3327" stroke="#163668" stroke-width="2" stroke-linecap="round" stroke-linejoin="round"/>
<path d="M16.666 18.5H23.3327" stroke="#163668" stroke-width="2" stroke-linecap="round" stroke-linejoin="round"/>
<path d="M16.666 8.5H23.3327" stroke="#163668" stroke-width="2" stroke-linecap="round" stroke-linejoin="round"/>
<path d="M8.33203 18.5H11.6654" stroke="#163668" stroke-width="2" stroke-linecap="round" stroke-linejoin="round"/>
<path d="M8.33203 24.3333H11.6654" stroke="#163668" stroke-width="2" stroke-linecap="round" stroke-linejoin="round"/>
<path d="M28.332 18.5H31.6654" stroke="#163668" stroke-width="2" stroke-linecap="round" stroke-linejoin="round"/>
<path d="M28.332 24.3333H31.6654" stroke="#163668" stroke-width="2" stroke-linecap="round" stroke-linejoin="round"/>
<path d="M38.3327 31H1.66602" stroke="#163668" stroke-width="2" stroke-linecap="round" stroke-linejoin="round"/>
</svg>